# Blender v2.79 (sub 0) OBJ File: ''
# www.blender.org
mtllib untitled.mtl
o Cube.001
v 1.000000 -2.248079 -0.102718
v 1.000000 -2.248079 0.102718
v -1.000000 -2.248079 0.102718
v 1.000000 2.248079 -0.102718
v -1.000000 2.248079 -0.102718
v -1.000000 2.248079 0.102718
v 1.000000 -2.248079 -0.102718
v 1.000000 2.248079 -0.102718
v 0.999999 2.248079 0.102719
v 1.000000 -2.248079 0.102718
v 0.999999 2.248079 0.102719
v -1.000000 -2.248079 0.102718
v -1.000000 -2.248079 0.102718
v -1.000000 2.248079 0.102718
v -1.000000 -2.248079 -0.102718
v 1.000000 2.248079 -0.102718
v 1.000000 -2.248079 -0.102718
v -1.000000 -2.248079 -0.102718
v 0.817221 2.463274 0.112929
v 0.817221 2.463274 -0.112928
v 0.817221 1.998806 0.112929
v 0.817221 2.463274 -0.112928
v 1.048229 2.463274 -0.112928
v 1.048229 1.998806 -0.112928
v 1.048229 2.463274 -0.112928
v 1.048229 2.463274 0.112929
v 1.048229 1.998806 0.112929
v 1.048229 2.463274 0.112929
v 0.817221 2.463274 0.112929
v 0.817221 1.998806 0.112929
v 0.817221 1.998806 0.112929
v 0.817221 1.998806 -0.112928
v 1.048229 1.998806 -0.112928
v 1.048229 2.463274 0.112929
v 1.048229 2.463274 -0.112928
v 0.817221 2.463274 -0.112928
v -1.099549 2.463274 0.112929
v -1.099549 2.463274 -0.112928
v -1.099549 1.998806 0.112929
v -1.099549 2.463274 -0.112928
v -0.868540 2.463274 -0.112928
v -0.868540 1.998806 -0.112928
v -0.868540 2.463274 -0.112928
v -0.868540 2.463274 0.112929
v -0.868540 1.998806 0.112929
v -0.868540 2.463274 0.112929
v -1.099549 2.463274 0.112929
v -1.099549 1.998806 0.112929
v -1.099549 1.998806 0.112929
v -1.099549 1.998806 -0.112928
v -0.868540 1.998806 -0.112928
v -0.868540 2.463274 0.112929
v -0.868540 2.463274 -0.112928
v -1.099549 2.463274 -0.112928
v -1.099549 -1.928782 0.112928
v -1.099549 -1.928782 -0.112929
v -1.099549 -2.393251 0.112928
v -1.099549 -1.928782 -0.112929
v -0.868540 -1.928782 -0.112929
v -0.868540 -2.393251 -0.112929
v -0.868540 -1.928782 -0.112929
v -0.868540 -1.928782 0.112928
v -0.868540 -2.393251 0.112928
v -0.868540 -1.928782 0.112928
v -1.099549 -1.928782 0.112928
v -1.099549 -2.393251 0.112928
v -1.099549 -2.393251 0.112928
v -1.099549 -2.393251 -0.112929
v -0.868540 -2.393251 -0.112929
v -0.868540 -1.928782 0.112928
v -0.868540 -1.928782 -0.112929
v -1.099549 -1.928782 -0.112929
v 0.843538 -1.928782 0.112928
v 0.843538 -1.928782 -0.112929
v 0.843538 -2.393251 0.112928
v 0.843538 -1.928782 -0.112929
v 1.074547 -1.928782 -0.112929
v 1.074547 -2.393251 -0.112929
v 1.074547 -1.928782 -0.112929
v 1.074547 -1.928782 0.112928
v 1.074547 -2.393251 0.112928
v 1.074547 -1.928782 0.112928
v 0.843538 -1.928782 0.112928
v 0.843538 -2.393251 0.112928
v 0.843538 -2.393251 0.112928
v 0.843538 -2.393251 -0.112929
v 1.074547 -2.393251 -0.112929
v 1.074547 -1.928782 0.112928
v 1.074547 -1.928782 -0.112929
v 0.843538 -1.928782 -0.112929
v 0.821949 2.259288 -0.110403
v 0.821949 -2.233530 -0.110403
v 0.821949 2.259288 -0.089180
v 0.821949 -2.233530 -0.110403
v 1.052958 -2.233530 -0.110403
v 1.052958 -2.233530 -0.089181
v 1.052958 -2.233530 -0.110403
v 1.052958 2.259288 -0.110403
v 1.052958 2.259288 -0.089180
v 1.052958 2.259288 -0.110403
v 0.821949 2.259288 -0.110403
v 0.821949 2.259288 -0.089180
v 0.821949 2.259288 -0.089180
v 0.821949 -2.233530 -0.089181
v 1.052958 -2.233530 -0.089181
v 1.052958 2.259288 -0.110403
v 1.052958 -2.233530 -0.110403
v 0.821949 -2.233530 -0.110403
v -1.103805 2.259288 -0.110403
v -1.103805 -2.233530 -0.110403
v -1.103805 2.259288 -0.089180
v -1.103805 -2.233530 -0.110403
v -0.872797 -2.233530 -0.110403
v -0.872797 -2.233530 -0.089181
v -0.872797 -2.233530 -0.110403
v -0.872797 2.259288 -0.110403
v -0.872797 2.259288 -0.089180
v -0.872797 2.259288 -0.110403
v -1.103805 2.259288 -0.110403
v -1.103805 2.259288 -0.089180
v -1.103805 2.259288 -0.089180
v -1.103805 -2.233530 -0.089181
v -0.872797 -2.233530 -0.089181
v -0.872797 2.259288 -0.110403
v -0.872797 -2.233530 -0.110403
v -1.103805 -2.233530 -0.110403
v -1.103805 2.259288 0.087581
v -1.103805 -2.233530 0.087581
v -1.103805 2.259288 0.108804
v -1.103805 -2.233530 0.087581
v -0.872797 -2.233530 0.087581
v -0.872797 -2.233530 0.108803
v -0.872797 -2.233530 0.087581
v -0.872797 2.259288 0.087581
v -0.872797 2.259288 0.108804
v -0.872797 2.259288 0.087581
v -1.103805 2.259288 0.087581
v -1.103805 2.259288 0.108804
v -1.103805 2.259288 0.108804
v -1.103805 -2.233530 0.108803
v -0.872797 -2.233530 0.108803
v -0.872797 2.259288 0.087581
v -0.872797 -2.233530 0.087581
v -1.103805 -2.233530 0.087581
v 0.856109 2.259288 0.087581
v 0.856109 -2.233530 0.087581
v 0.856109 2.259288 0.108804
v 0.856109 -2.233530 0.087581
v 1.087117 -2.233530 0.087581
v 1.087117 -2.233530 0.108803
v 1.087117 -2.233530 0.087581
v 1.087117 2.259288 0.087581
v 1.087117 2.259288 0.108804
v 1.087117 2.259288 0.087581
v 0.856109 2.259288 0.087581
v 0.856109 2.259288 0.108804
v 0.856109 2.259288 0.108804
v 0.856109 -2.233530 0.108803
v 1.087117 -2.233530 0.108803
v 1.087117 2.259288 0.087581
v 1.087117 -2.233530 0.087581
v 0.856109 -2.233530 0.087581
v 0.956630 2.485243 0.087581
v -1.041884 2.485243 0.087581
v 0.956630 2.485243 0.108804
v -1.041884 2.485243 0.087581
v -1.041884 1.965916 0.087581
v -1.041884 2.485243 0.108804
v -1.041884 1.965916 0.087581
v 0.956630 1.965916 0.087581
v 0.956630 1.965916 0.108804
v 0.956630 1.965916 0.087581
v 0.956630 2.485243 0.087581
v 0.956630 2.485243 0.108804
v 0.956630 2.485243 0.108804
v -1.041884 2.485243 0.108804
v -1.041884 1.965916 0.108804
v 0.956630 1.965916 0.087581
v -1.041884 1.965916 0.087581
v 0.956630 2.485243 0.087581
v 0.956630 -1.827839 0.087581
v -1.041884 -1.827839 0.087581
v 0.956630 -1.827839 0.108803
v -1.041884 -1.827839 0.087581
v -1.041884 -2.347163 0.087581
v -1.041884 -1.827839 0.108803
v -1.041884 -2.347163 0.087581
v 0.956630 -2.347163 0.087581
v 0.956630 -2.347163 0.108803
v 0.956630 -2.347163 0.087581
v 0.956630 -1.827839 0.087581
v 0.956630 -1.827839 0.108803
v 0.956630 -1.827839 0.108803
v -1.041884 -1.827839 0.108803
v -1.041884 -2.347163 0.108803
v 0.956630 -2.347163 0.087581
v -1.041884 -2.347163 0.087581
v 0.956630 -1.827839 0.087581
v 0.956630 -1.827839 -0.107354
v -1.041884 -1.827839 -0.107354
v 0.956630 -1.827839 -0.086132
v -1.041884 -1.827839 -0.107354
v -1.041884 -2.347163 -0.107354
v -1.041884 -1.827839 -0.086132
v -1.041884 -2.347163 -0.107354
v 0.956630 -2.347163 -0.107354
v 0.956630 -2.347163 -0.086132
v 0.956630 -2.347163 -0.107354
v 0.956630 -1.827839 -0.107354
v 0.956630 -1.827839 -0.086132
v 0.956630 -1.827839 -0.086132
v -1.041884 -1.827839 -0.086132
v -1.041884 -2.347163 -0.086132
v 0.956630 -2.347163 -0.107354
v -1.041884 -2.347163 -0.107354
v -1.041884 -1.827839 -0.107354
v 0.956630 2.417058 -0.107353
v -1.041884 2.417058 -0.107353
v 0.956630 2.417058 -0.086131
v -1.041884 2.417058 -0.107353
v -1.041884 1.897732 -0.107353
v -1.041884 2.417058 -0.086131
v -1.041884 1.897732 -0.107353
v 0.956630 1.897732 -0.107353
v 0.956630 1.897732 -0.086131
v 0.956630 1.897732 -0.107353
v 0.956630 2.417058 -0.107353
v 0.956630 2.417058 -0.086131
v 0.956630 2.417058 -0.086131
v -1.041884 2.417058 -0.086131
v -1.041884 1.897732 -0.086131
v 0.956630 1.897732 -0.107353
v -1.041884 1.897732 -0.107353
v -1.041884 2.417058 -0.107353
v -1.000000 -2.248079 -0.102718
v 0.999999 2.248079 0.102719
v 1.000000 -2.248079 0.102718
v -1.000000 2.248079 0.102718
v -1.000000 2.248079 -0.102718
v -1.000000 2.248079 -0.102718
v 0.817221 1.998806 -0.112928
v 0.817221 1.998806 -0.112928
v 1.048229 1.998806 -0.112928
v 1.048229 1.998806 0.112929
v 1.048229 1.998806 0.112929
v 0.817221 2.463274 0.112929
v -1.099549 1.998806 -0.112928
v -1.099549 1.998806 -0.112928
v -0.868540 1.998806 -0.112928
v -0.868540 1.998806 0.112929
v -0.868540 1.998806 0.112929
v -1.099549 2.463274 0.112929
v -1.099549 -2.393251 -0.112929
v -1.099549 -2.393251 -0.112929
v -0.868540 -2.393251 -0.112929
v -0.868540 -2.393251 0.112928
v -0.868540 -2.393251 0.112928
v -1.099549 -1.928782 0.112928
v 0.843538 -2.393251 -0.112929
v 0.843538 -2.393251 -0.112929
v 1.074547 -2.393251 -0.112929
v 1.074547 -2.393251 0.112928
v 1.074547 -2.393251 0.112928
v 0.843538 -1.928782 0.112928
v 0.821949 -2.233530 -0.089181
v 0.821949 -2.233530 -0.089181
v 1.052958 -2.233530 -0.089181
v 1.052958 2.259288 -0.089180
v 1.052958 2.259288 -0.089180
v 0.821949 2.259288 -0.110403
v -1.103805 -2.233530 -0.089181
v -1.103805 -2.233530 -0.089181
v -0.872797 -2.233530 -0.089181
v -0.872797 2.259288 -0.089180
v -0.872797 2.259288 -0.089180
v -1.103805 2.259288 -0.110403
v -1.103805 -2.233530 0.108803
v -1.103805 -2.233530 0.108803
v -0.872797 -2.233530 0.108803
v -0.872797 2.259288 0.108804
v -0.872797 2.259288 0.108804
v -1.103805 2.259288 0.087581
v 0.856109 -2.233530 0.108803
v 0.856109 -2.233530 0.108803
v 1.087117 -2.233530 0.108803
v 1.087117 2.259288 0.108804
v 1.087117 2.259288 0.108804
v 0.856109 2.259288 0.087581
v -1.041884 2.485243 0.108804
v -1.041884 1.965916 0.108804
v -1.041884 1.965916 0.108804
v 0.956630 1.965916 0.108804
v 0.956630 1.965916 0.108804
v -1.041884 2.485243 0.087581
v -1.041884 -1.827839 0.108803
v -1.041884 -2.347163 0.108803
v -1.041884 -2.347163 0.108803
v 0.956630 -2.347163 0.108803
v 0.956630 -2.347163 0.108803
v -1.041884 -1.827839 0.087581
v -1.041884 -1.827839 -0.086132
v -1.041884 -2.347163 -0.086132
v -1.041884 -2.347163 -0.086132
v 0.956630 -2.347163 -0.086132
v 0.956630 -2.347163 -0.086132
v 0.956630 -1.827839 -0.107354
v -1.041884 2.417058 -0.086131
v -1.041884 1.897732 -0.086131
v -1.041884 1.897732 -0.086131
v 0.956630 1.897732 -0.086131
v 0.956630 1.897732 -0.086131
v 0.956630 2.417058 -0.107353
vt 0.999900 0.999900
vt 0.000100 0.999900
vt 0.000100 0.000100
vt 0.999900 0.999899
vt 0.000100 0.999900
vt 0.000100 0.000100
vt 0.999900 0.000100
vt 0.999900 0.999899
vt 0.000100 0.999900
vt 0.999900 0.000100
vt 0.999900 0.999900
vt 0.000100 0.000100
vt 0.000100 0.999900
vt 0.000100 0.000100
vt 0.999900 0.999900
vt 0.999900 0.000100
vt 0.999900 0.999900
vt 0.000100 0.999900
vt 0.000031 0.000031
vt 0.999969 0.000031
vt 0.000031 0.093989
vt 0.443098 0.396304
vt 0.556902 0.396304
vt 0.556902 0.498086
vt 0.999969 0.093989
vt 0.000031 0.093989
vt 0.000031 0.000031
vt 0.546766 0.489021
vt 0.453234 0.489021
vt 0.453234 0.405369
vt 0.000069 0.000032
vt 0.999967 0.000378
vt 0.999931 0.105428
vt 0.000032 0.000032
vt 0.999968 0.000033
vt 0.999968 0.105087
vt 0.000031 0.000031
vt 0.999969 0.000031
vt 0.000031 0.093989
vt 0.443098 0.396304
vt 0.556902 0.396304
vt 0.556902 0.498086
vt 0.999969 0.093989
vt 0.000031 0.093989
vt 0.000031 0.000031
vt 0.546766 0.489021
vt 0.453234 0.489021
vt 0.453234 0.405369
vt 0.000069 0.000032
vt 0.999967 0.000378
vt 0.999931 0.105428
vt 0.000032 0.000032
vt 0.999968 0.000033
vt 0.999968 0.105087
vt 0.000031 0.000031
vt 0.999969 0.000031
vt 0.000031 0.093989
vt 0.443098 0.396304
vt 0.556902 0.396304
vt 0.556902 0.498086
vt 0.999969 0.093989
vt 0.000031 0.093989
vt 0.000031 0.000031
vt 0.546766 0.489021
vt 0.453234 0.489021
vt 0.453234 0.405369
vt 0.000069 0.000032
vt 0.999967 0.000378
vt 0.999931 0.105428
vt 0.000032 0.000032
vt 0.999968 0.000033
vt 0.999968 0.105087
vt 0.000031 0.000031
vt 0.999969 0.000031
vt 0.000031 0.093989
vt 0.443098 0.396304
vt 0.556902 0.396304
vt 0.556902 0.498086
vt 0.999969 0.093989
vt 0.000031 0.093989
vt 0.000031 0.000031
vt 0.546766 0.489021
vt 0.453234 0.489021
vt 0.453234 0.405369
vt 0.000069 0.000032
vt 0.999967 0.000378
vt 0.999931 0.105428
vt 0.000032 0.000032
vt 0.999968 0.000033
vt 0.999968 0.105087
vt 0.000031 0.000031
vt 0.999969 0.000031
vt 0.000031 0.093989
vt 0.443098 0.396304
vt 0.556902 0.396304
vt 0.556902 0.498086
vt 0.999969 0.093989
vt 0.000031 0.093989
vt 0.000031 0.000031
vt 0.546766 0.489021
vt 0.453234 0.489021
vt 0.453234 0.405369
vt 0.000069 0.000032
vt 0.999967 0.000378
vt 0.999931 0.105428
vt 0.000032 0.000032
vt 0.999968 0.000033
vt 0.999968 0.105087
vt 0.000031 0.000031
vt 0.999969 0.000031
vt 0.000031 0.093989
vt 0.443098 0.396304
vt 0.556902 0.396304
vt 0.556902 0.498086
vt 0.999969 0.093989
vt 0.000031 0.093989
vt 0.000031 0.000031
vt 0.546766 0.489021
vt 0.453234 0.489021
vt 0.453234 0.405369
vt 0.000069 0.000032
vt 0.999967 0.000378
vt 0.999931 0.105428
vt 0.000032 0.000032
vt 0.999968 0.000033
vt 0.999968 0.105087
vt 0.000031 0.000031
vt 0.999969 0.000031
vt 0.000031 0.093989
vt 0.443098 0.396304
vt 0.556902 0.396304
vt 0.556902 0.498086
vt 0.999969 0.093989
vt 0.000031 0.093989
vt 0.000031 0.000031
vt 0.546766 0.489021
vt 0.453234 0.489021
vt 0.453234 0.405369
vt 0.000069 0.000032
vt 0.999967 0.000378
vt 0.999931 0.105428
vt 0.000032 0.000032
vt 0.999968 0.000033
vt 0.999968 0.105087
vt 0.000031 0.000031
vt 0.999969 0.000031
vt 0.000031 0.093989
vt 0.443098 0.396304
vt 0.556902 0.396304
vt 0.556902 0.498086
vt 0.999969 0.093989
vt 0.000031 0.093989
vt 0.000031 0.000031
vt 0.546766 0.489021
vt 0.453234 0.489021
vt 0.453234 0.405369
vt 0.000069 0.000032
vt 0.999967 0.000378
vt 0.999931 0.105428
vt 0.000032 0.000032
vt 0.999968 0.000033
vt 0.999968 0.105087
vt 0.000031 0.000031
vt 0.999969 0.000031
vt 0.000031 0.093989
vt 0.443098 0.396304
vt 0.556902 0.396304
vt 0.443098 0.498086
vt 0.999969 0.093989
vt 0.000031 0.093989
vt 0.000031 0.000031
vt 0.546766 0.489021
vt 0.453234 0.489021
vt 0.453234 0.405369
vt 0.000069 0.000032
vt 0.999967 0.000378
vt 0.999931 0.105428
vt 0.000032 0.000032
vt 0.999968 0.000033
vt 0.000032 0.105087
vt 0.000031 0.000031
vt 0.999969 0.000031
vt 0.000031 0.093989
vt 0.443098 0.396304
vt 0.556902 0.396304
vt 0.443098 0.498086
vt 0.999969 0.093989
vt 0.000031 0.093989
vt 0.000031 0.000031
vt 0.546766 0.489021
vt 0.453234 0.489021
vt 0.453234 0.405369
vt 0.000069 0.000032
vt 0.999967 0.000378
vt 0.999931 0.105428
vt 0.000032 0.000032
vt 0.999968 0.000033
vt 0.000032 0.105087
vt 0.000031 0.000031
vt 0.999969 0.000031
vt 0.000031 0.093989
vt 0.443098 0.396304
vt 0.556902 0.396304
vt 0.443098 0.498086
vt 0.999969 0.093989
vt 0.000031 0.093989
vt 0.000031 0.000031
vt 0.546766 0.489021
vt 0.453234 0.489021
vt 0.453234 0.405369
vt 0.000069 0.000032
vt 0.999967 0.000378
vt 0.999931 0.105428
vt 0.000032 0.000032
vt 0.999968 0.000033
vt 0.999968 0.105087
vt 0.000031 0.000031
vt 0.999969 0.000031
vt 0.000031 0.093989
vt 0.443098 0.396304
vt 0.556902 0.396304
vt 0.443098 0.498086
vt 0.999969 0.093989
vt 0.000031 0.093989
vt 0.000031 0.000031
vt 0.546766 0.489021
vt 0.453234 0.489021
vt 0.453234 0.405369
vt 0.000069 0.000032
vt 0.999967 0.000378
vt 0.999931 0.105428
vt 0.000032 0.000032
vt 0.999968 0.000033
vt 0.999968 0.105087
vt 0.999900 0.000100
vt 0.999899 0.000100
vt 0.000100 0.000100
vt 0.000100 0.999900
vt 0.999900 0.000100
vt 0.000100 0.000100
vt 0.999969 0.093989
vt 0.443098 0.498086
vt 0.999969 0.000031
vt 0.546766 0.405369
vt 0.000032 0.105083
vt 0.000032 0.105087
vt 0.999969 0.093989
vt 0.443098 0.498086
vt 0.999969 0.000031
vt 0.546766 0.405369
vt 0.000032 0.105083
vt 0.000032 0.105087
vt 0.999969 0.093989
vt 0.443098 0.498086
vt 0.999969 0.000031
vt 0.546766 0.405369
vt 0.000032 0.105083
vt 0.000032 0.105087
vt 0.999969 0.093989
vt 0.443098 0.498086
vt 0.999969 0.000031
vt 0.546766 0.405369
vt 0.000032 0.105083
vt 0.000032 0.105087
vt 0.999969 0.093989
vt 0.443098 0.498086
vt 0.999969 0.000031
vt 0.546766 0.405369
vt 0.000032 0.105083
vt 0.000032 0.105087
vt 0.999969 0.093989
vt 0.443098 0.498086
vt 0.999969 0.000031
vt 0.546766 0.405369
vt 0.000032 0.105083
vt 0.000032 0.105087
vt 0.999969 0.093989
vt 0.443098 0.498086
vt 0.999969 0.000031
vt 0.546766 0.405369
vt 0.000032 0.105083
vt 0.000032 0.105087
vt 0.999969 0.093989
vt 0.443098 0.498086
vt 0.999969 0.000031
vt 0.546766 0.405369
vt 0.000032 0.105083
vt 0.000032 0.105087
vt 0.999969 0.093989
vt 0.556902 0.498086
vt 0.999969 0.000031
vt 0.546766 0.405369
vt 0.000032 0.105083
vt 0.999968 0.105087
vt 0.999969 0.093989
vt 0.556902 0.498086
vt 0.999969 0.000031
vt 0.546766 0.405369
vt 0.000032 0.105083
vt 0.999968 0.105087
vt 0.999969 0.093989
vt 0.556902 0.498086
vt 0.999969 0.000031
vt 0.546766 0.405369
vt 0.000032 0.105083
vt 0.000032 0.105087
vt 0.999969 0.093989
vt 0.556902 0.498086
vt 0.999969 0.000031
vt 0.546766 0.405369
vt 0.000032 0.105083
vt 0.000032 0.105087
vn 0.0000 -1.0000 0.0000
vn 0.0000 1.0000 -0.0000
vn 1.0000 0.0000 0.0000
vn 0.0000 -0.0000 1.0000
vn -1.0000 0.0000 0.0000
vn 0.0000 0.0000 -1.0000
usemtl None
s 1
f 1/1/1 2/2/1 3/3/1
f 4/4/2 5/5/2 6/6/2
f 7/7/3 8/8/3 9/9/3
f 10/10/4 11/11/4 12/12/4
f 13/13/5 14/14/5 15/15/5
f 16/16/6 17/17/6 18/18/6
f 19/19/5 20/20/5 21/21/5
f 22/22/6 23/23/6 24/24/6
f 25/25/3 26/26/3 27/27/3
f 28/28/4 29/29/4 30/30/4
f 31/31/1 32/32/1 33/33/1
f 34/34/2 35/35/2 36/36/2
f 37/37/5 38/38/5 39/39/5
f 40/40/6 41/41/6 42/42/6
f 43/43/3 44/44/3 45/45/3
f 46/46/4 47/47/4 48/48/4
f 49/49/1 50/50/1 51/51/1
f 52/52/2 53/53/2 54/54/2
f 55/55/5 56/56/5 57/57/5
f 58/58/6 59/59/6 60/60/6
f 61/61/3 62/62/3 63/63/3
f 64/64/4 65/65/4 66/66/4
f 67/67/1 68/68/1 69/69/1
f 70/70/2 71/71/2 72/72/2
f 73/73/5 74/74/5 75/75/5
f 76/76/6 77/77/6 78/78/6
f 79/79/3 80/80/3 81/81/3
f 82/82/4 83/83/4 84/84/4
f 85/85/1 86/86/1 87/87/1
f 88/88/2 89/89/2 90/90/2
f 91/91/5 92/92/5 93/93/5
f 94/94/1 95/95/1 96/96/1
f 97/97/3 98/98/3 99/99/3
f 100/100/2 101/101/2 102/102/2
f 103/103/4 104/104/4 105/105/4
f 106/106/6 107/107/6 108/108/6
f 109/109/5 110/110/5 111/111/5
f 112/112/1 113/113/1 114/114/1
f 115/115/3 116/116/3 117/117/3
f 118/118/2 119/119/2 120/120/2
f 121/121/4 122/122/4 123/123/4
f 124/124/6 125/125/6 126/126/6
f 127/127/5 128/128/5 129/129/5
f 130/130/1 131/131/1 132/132/1
f 133/133/3 134/134/3 135/135/3
f 136/136/2 137/137/2 138/138/2
f 139/139/4 140/140/4 141/141/4
f 142/142/6 143/143/6 144/144/6
f 145/145/5 146/146/5 147/147/5
f 148/148/1 149/149/1 150/150/1
f 151/151/3 152/152/3 153/153/3
f 154/154/2 155/155/2 156/156/2
f 157/157/4 158/158/4 159/159/4
f 160/160/6 161/161/6 162/162/6
f 163/163/2 164/164/2 165/165/2
f 166/166/5 167/167/5 168/168/5
f 169/169/1 170/170/1 171/171/1
f 172/172/3 173/173/3 174/174/3
f 175/175/4 176/176/4 177/177/4
f 178/178/6 179/179/6 180/180/6
f 181/181/2 182/182/2 183/183/2
f 184/184/5 185/185/5 186/186/5
f 187/187/1 188/188/1 189/189/1
f 190/190/3 191/191/3 192/192/3
f 193/193/4 194/194/4 195/195/4
f 196/196/6 197/197/6 198/198/6
f 199/199/2 200/200/2 201/201/2
f 202/202/5 203/203/5 204/204/5
f 205/205/1 206/206/1 207/207/1
f 208/208/3 209/209/3 210/210/3
f 211/211/4 212/212/4 213/213/4
f 214/214/6 215/215/6 216/216/6
f 217/217/2 218/218/2 219/219/2
f 220/220/5 221/221/5 222/222/5
f 223/223/1 224/224/1 225/225/1
f 226/226/3 227/227/3 228/228/3
f 229/229/4 230/230/4 231/231/4
f 232/232/6 233/233/6 234/234/6
f 235/235/1 1/1/1 3/3/1
f 236/236/2 4/4/2 6/6/2
f 237/237/3 7/7/3 9/9/3
f 11/11/4 238/238/4 12/12/4
f 14/14/5 239/239/5 15/15/5
f 240/240/6 16/16/6 18/18/6
f 20/20/5 241/241/5 21/21/5
f 242/242/6 22/22/6 24/24/6
f 243/243/3 25/25/3 27/27/3
f 244/244/4 28/28/4 30/30/4
f 245/245/1 31/31/1 33/33/1
f 246/246/2 34/34/2 36/36/2
f 38/38/5 247/247/5 39/39/5
f 248/248/6 40/40/6 42/42/6
f 249/249/3 43/43/3 45/45/3
f 250/250/4 46/46/4 48/48/4
f 251/251/1 49/49/1 51/51/1
f 252/252/2 52/52/2 54/54/2
f 56/56/5 253/253/5 57/57/5
f 254/254/6 58/58/6 60/60/6
f 255/255/3 61/61/3 63/63/3
f 256/256/4 64/64/4 66/66/4
f 257/257/1 67/67/1 69/69/1
f 258/258/2 70/70/2 72/72/2
f 74/74/5 259/259/5 75/75/5
f 260/260/6 76/76/6 78/78/6
f 261/261/3 79/79/3 81/81/3
f 262/262/4 82/82/4 84/84/4
f 263/263/1 85/85/1 87/87/1
f 264/264/2 88/88/2 90/90/2
f 92/92/5 265/265/5 93/93/5
f 266/266/1 94/94/1 96/96/1
f 267/267/3 97/97/3 99/99/3
f 268/268/2 100/100/2 102/102/2
f 269/269/4 103/103/4 105/105/4
f 270/270/6 106/106/6 108/108/6
f 110/110/5 271/271/5 111/111/5
f 272/272/1 112/112/1 114/114/1
f 273/273/3 115/115/3 117/117/3
f 274/274/2 118/118/2 120/120/2
f 275/275/4 121/121/4 123/123/4
f 276/276/6 124/124/6 126/126/6
f 128/128/5 277/277/5 129/129/5
f 278/278/1 130/130/1 132/132/1
f 279/279/3 133/133/3 135/135/3
f 280/280/2 136/136/2 138/138/2
f 281/281/4 139/139/4 141/141/4
f 282/282/6 142/142/6 144/144/6
f 146/146/5 283/283/5 147/147/5
f 284/284/1 148/148/1 150/150/1
f 285/285/3 151/151/3 153/153/3
f 286/286/2 154/154/2 156/156/2
f 287/287/4 157/157/4 159/159/4
f 288/288/6 160/160/6 162/162/6
f 164/164/2 289/289/2 165/165/2
f 167/167/5 290/290/5 168/168/5
f 291/291/1 169/169/1 171/171/1
f 292/292/3 172/172/3 174/174/3
f 293/293/4 175/175/4 177/177/4
f 179/179/6 294/294/6 180/180/6
f 182/182/2 295/295/2 183/183/2
f 185/185/5 296/296/5 186/186/5
f 297/297/1 187/187/1 189/189/1
f 298/298/3 190/190/3 192/192/3
f 299/299/4 193/193/4 195/195/4
f 197/197/6 300/300/6 198/198/6
f 200/200/2 301/301/2 201/201/2
f 203/203/5 302/302/5 204/204/5
f 303/303/1 205/205/1 207/207/1
f 304/304/3 208/208/3 210/210/3
f 305/305/4 211/211/4 213/213/4
f 306/306/6 214/214/6 216/216/6
f 218/218/2 307/307/2 219/219/2
f 221/221/5 308/308/5 222/222/5
f 309/309/1 223/223/1 225/225/1
f 310/310/3 226/226/3 228/228/3
f 311/311/4 229/229/4 231/231/4
f 312/312/6 232/232/6 234/234/6
