# Blender v2.79 (sub 0) OBJ File: ''
# www.blender.org
o Body_Court
v -0.350000 3.400000 -1.800000
v -0.300000 3.400000 -1.800000
v -0.300000 3.400000 1.800000
v -0.350000 3.400000 1.800000
v -0.300000 3.600000 2.000000
v -0.300000 3.600000 -2.000000
v -0.300000 -3.400000 -1.800000
v -0.300000 1.250000 -1.800000
v -0.275000 1.275000 -1.825000
v -0.300000 -3.400000 -1.800000
v -0.350000 -3.400000 1.800000
v -0.350000 -3.400000 -1.800000
v -0.300000 -3.400000 1.800000
v -0.300000 -3.600000 -2.000000
v -0.300000 -3.600000 2.000000
v -0.350000 3.400000 -1.800000
v -0.300000 1.450000 -1.800000
v -0.350000 1.450000 -1.800000
v -0.300000 3.400000 -1.800000
v -0.300000 1.450000 -1.800000
v -0.275000 1.425000 -1.825000
v -0.300000 3.400000 -1.800000
v -0.300000 1.450000 -1.800000
v -0.350000 1.450000 -1.800000
v -0.350000 1.450000 1.800000
v -0.300000 1.450000 1.800000
v -0.300000 1.450000 1.800000
v -0.275000 1.425000 -1.825000
v -0.275000 1.425000 1.825000
v -0.300000 1.450000 -1.800000
v -0.300000 1.250000 -1.800000
v -0.275000 1.275000 -1.825000
v -0.275000 1.275000 1.825000
v -0.300000 1.250000 1.800000
v -0.300000 1.250000 -1.800000
v -0.300000 1.250000 1.800000
v -0.350000 1.250000 1.800000
v -0.350000 1.250000 -1.800000
v -0.350000 -3.300000 1.700000
v -0.350000 1.150000 1.700000
v -0.500000 -3.300000 1.700000
v -0.500000 1.150000 1.700000
v -0.500000 -3.300000 -1.700000
v -0.350000 1.150000 -1.700000
v -0.500000 1.150000 -1.700000
v -0.350000 -3.300000 -1.700000
v -0.350000 1.550000 1.700000
v -0.350000 3.300000 1.700000
v -0.500000 1.550000 1.700000
v -0.500000 3.300000 1.700000
v -0.500000 1.550000 -1.700000
v -0.500000 3.300000 -1.700000
v -0.350000 3.300000 -1.700000
v -0.350000 1.550000 -1.700000
v -0.350000 3.400000 -1.800000
v -0.350000 3.400000 1.800000
v -0.350000 3.300000 1.700000
v -0.350000 3.300000 -1.700000
v -0.350000 3.300000 1.700000
v -0.350000 3.300000 -1.700000
v -0.500000 3.300000 1.700000
v -0.500000 3.300000 -1.700000
v -0.350000 1.550000 1.700000
v -0.350000 1.450000 1.800000
v -0.350000 1.450000 -1.800000
v -0.350000 1.550000 -1.700000
v -0.500000 1.550000 1.700000
v -0.350000 1.550000 -1.700000
v -0.500000 1.550000 -1.700000
v -0.350000 1.550000 1.700000
v -0.350000 1.150000 -1.700000
v -0.350000 1.250000 -1.800000
v -0.350000 1.250000 1.800000
v -0.350000 1.150000 1.700000
v -0.350000 1.150000 1.700000
v -0.500000 1.150000 -1.700000
v -0.500000 1.150000 1.700000
v -0.350000 1.150000 -1.700000
v -0.350000 -3.400000 1.800000
v -0.350000 -3.400000 -1.800000
v -0.350000 -3.300000 1.700000
v -0.350000 -3.300000 -1.700000
v -0.500000 -3.300000 1.700000
v -0.350000 -3.300000 1.700000
v -0.350000 -3.300000 -1.700000
v -0.500000 -3.300000 -1.700000
v 0.300000 -4.025000 -2.225000
v 0.356771 -4.025000 2.225000
v 0.300000 -4.025000 2.225000
v 0.356770 -4.025000 -2.225000
v 0.375000 -3.925000 -2.225000
v 0.375000 -3.925000 2.225000
v 0.375000 -3.925000 -2.225000
v 0.375000 -3.925000 2.225000
v 0.400000 -3.725000 -2.225000
v 0.400000 -3.915781 2.225000
v 0.400000 -3.725000 2.225000
v 0.400000 -3.915781 -2.225000
v 0.400000 -3.725000 -2.225000
v 0.400000 -3.725000 2.225000
v 0.300000 -3.600000 -2.225000
v 0.300000 -3.600000 2.225000
v 0.494385 -3.719386 2.225000
v 0.494385 -3.605615 2.225000
v 0.300000 -3.600000 2.225000
v 0.300000 -4.025000 2.225000
v 0.400000 -3.915781 2.225000
v 0.375000 -3.925000 2.225000
v 0.356771 -4.025000 2.225000
v 0.400000 -3.725000 2.225000
v 0.494385 -3.605615 -2.225000
v 0.494385 -3.719386 -2.225000
v 0.400000 -3.725000 -2.225000
v 0.400000 -3.915781 -2.225000
v 0.375000 -3.925000 -2.225000
v 0.300000 -4.025000 -2.225000
v 0.356770 -4.025000 -2.225000
v 0.300000 -3.600000 -2.225000
v 0.356770 -4.025000 -2.225000
v 0.356771 -4.025000 2.225000
v 0.400000 -3.915781 2.225000
v 0.400000 -3.915781 -2.225000
v 0.494385 -3.719386 -2.225000
v 0.494385 -3.719386 2.225000
v 0.494385 -3.605615 2.225000
v 0.494385 -3.605615 -2.225000
v 0.387500 -3.600000 -2.225000
v 0.387500 -3.600000 -2.225000
v 0.387500 3.825000 -2.225000
v 0.300000 3.825000 -2.225000
v 0.300000 -3.600000 -2.225000
v 0.344941 3.600000 2.000000
v 0.344941 -3.600000 2.000000
v 0.344941 -3.600000 -2.000000
v 0.344941 3.600000 -2.000000
v 0.381481 -3.600000 -2.021494
v 0.381482 -3.600000 2.021494
v 0.300000 -3.600000 2.000000
v 0.300000 -3.600000 -2.000000
v -0.300000 -3.600000 -2.000000
v -0.300000 -3.600000 2.000000
v -0.300000 3.600000 -2.000000
v -0.300000 3.600000 2.000000
v 0.344941 3.600000 -2.000000
v 0.344941 3.600000 2.000000
v 0.387500 3.825000 -2.225000
v 0.387500 3.825000 2.225000
v 0.300000 3.825000 -2.225000
v 0.300000 3.825000 2.225000
v 0.387500 3.825000 -2.225000
v 0.344941 -3.600000 2.000000
v 0.300000 -3.600000 2.000000
v 0.344941 3.600000 2.000000
v -0.300000 -3.600000 2.000000
v -0.300000 3.600000 2.000000
v 0.387500 -3.600000 2.225000
v 0.387500 3.825000 2.225000
v 0.300000 -3.600000 2.225000
v 0.300000 3.825000 2.225000
v 0.387500 3.825000 2.225000
v 0.387500 -3.600000 2.225000
v -0.300000 -3.600000 -2.000000
v 0.300000 -3.600000 -2.000000
v -0.300000 3.600000 -2.000000
v 0.344941 3.600000 -2.000000
v 0.344941 -3.600000 -2.000000
v -0.350000 1.250000 -1.800000
v -0.300000 -3.400000 -1.800000
v -0.350000 -3.400000 -1.800000
v -0.300000 1.250000 -1.800000
v -0.275000 1.425000 -1.825000
v -0.275000 1.275000 -1.825000
v -0.350000 1.250000 1.800000
v -0.300000 -3.400000 1.800000
v -0.300000 1.250000 1.800000
v -0.350000 -3.400000 1.800000
v -0.350000 1.450000 1.800000
v -0.300000 3.400000 1.800000
v -0.350000 3.400000 1.800000
v -0.300000 1.450000 1.800000
v -0.300000 3.400000 1.800000
v -0.300000 1.450000 1.800000
v -0.275000 1.425000 1.825000
v -0.275000 1.275000 1.825000
v -0.300000 -3.400000 1.800000
v -0.300000 1.250000 1.800000
v -0.275000 1.425000 1.825000
v -0.275000 1.275000 1.825000
v -0.275000 3.425000 1.825000
v -0.300000 3.400000 1.800000
v -0.275000 3.425000 -1.825000
v -0.300000 3.400000 -1.800000
v -0.275000 3.575000 -1.975000
v -0.275000 3.575000 1.975000
v -0.275000 -3.425000 -1.825000
v -0.275000 3.425000 -1.825000
v -0.300000 -3.600000 2.000000
v -0.275000 3.575000 1.975000
v -0.275000 -3.575000 1.975000
v -0.300000 3.600000 2.000000
v -0.275000 -3.425000 -1.825000
v -0.300000 -3.400000 1.800000
v -0.275000 -3.425000 1.825000
v -0.300000 -3.400000 -1.800000
v -0.275000 -3.425000 -1.825000
v -0.275000 -3.575000 1.975000
v -0.275000 -3.575000 -1.975000
v -0.275000 -3.575000 -1.975000
v -0.275000 3.575000 -1.975000
v -0.300000 -3.600000 -2.000000
v -0.300000 3.600000 -2.000000
v -0.275000 3.425000 -1.825000
v 0.375000 -4.006771 -2.225000
v 0.375000 -4.006771 2.225000
v 0.390781 -3.925000 2.225000
v 0.390781 -3.925000 -2.225000
v 0.481354 -3.725000 -2.225000
v 0.481354 -3.725000 2.225000
v 0.481354 -3.600000 2.225000
v 0.481354 -3.600000 -2.225000
v 0.481354 -3.725000 2.225000
v 0.500000 -3.706354 2.225000
v 0.500000 -3.618646 2.225000
v 0.481354 -3.600000 2.225000
v 0.375000 -4.006771 2.225000
v 0.390781 -3.925000 2.225000
v 0.481354 -3.600000 -2.225000
v 0.500000 -3.618646 -2.225000
v 0.500000 -3.706354 -2.225000
v 0.481354 -3.725000 -2.225000
v 0.390781 -3.925000 -2.225000
v 0.375000 -4.006771 -2.225000
v 0.375000 -4.006771 -2.225000
v 0.375000 -4.006771 2.225000
v 0.390781 -3.925000 2.225000
v 0.390781 -3.925000 -2.225000
v 0.500000 -3.706354 2.225000
v 0.500000 -3.706354 -2.225000
v 0.481354 -3.600000 2.225000
v 0.494385 -3.605615 2.225000
v 0.481354 -3.600000 -2.225000
v 0.494385 -3.605615 -2.225000
v 0.481354 -3.725000 -2.225000
v 0.481354 -3.725000 2.225000
v 0.494385 -3.719386 2.225000
v 0.494385 -3.719386 -2.225000
v 0.500000 -3.618646 -2.225000
v 0.500000 -3.618646 2.225000
v 0.387500 -3.600000 -2.200000
v 0.387500 -3.600000 -2.075000
v 0.375000 -3.600000 -2.175000
v 0.375000 -3.600000 -2.100000
v 0.344941 3.600000 -2.000000
v 0.344941 3.600000 2.000000
v 0.366006 -3.600000 2.006018
v 0.366006 3.606018 2.006018
v 0.366006 -3.600000 -2.006018
v 0.366006 3.606018 -2.006018
v 0.387500 -3.600000 -2.042559
v 0.366006 3.606018 2.006018
v 0.381482 3.621494 2.021494
v 0.381482 3.621494 -2.021494
v 0.366006 3.606018 -2.006018
v 0.387500 3.642559 -2.042559
v 0.387500 3.675000 -2.075000
v 0.375000 3.700000 -2.100000
v 0.375000 3.775000 -2.175000
v 0.387500 3.800000 -2.200000
v 0.387500 -3.600000 2.075000
v 0.387500 -3.600000 2.042559
v 0.387500 3.642559 2.042559
v 0.387500 3.675000 2.075000
v 0.387500 -3.600000 2.200000
v 0.387500 3.800000 2.200000
v 0.375000 3.700000 2.100000
v 0.375000 -3.600000 2.175000
v 0.375000 3.775000 2.175000
v 0.375000 -3.600000 2.100000
v -0.275000 3.575000 -1.975000
v -0.275000 -3.575000 -1.975000
v -0.275000 3.425000 1.825000
v -0.275000 -3.425000 1.825000
v -0.275000 -3.425000 1.825000
v -0.275000 -3.575000 1.975000
v -0.275000 3.575000 1.975000
v -0.275000 3.425000 1.825000
vt 0.259983 0.000000
vt 0.259983 -1.000000
vt 0.246094 -1.000000
vt 0.246094 0.000000
vt 0.089575 -1.000000
vt 0.089575 0.000000
vt 0.000000 0.000000
vt 0.006242 -1.000000
vt 0.000000 -1.000000
vt 0.332205 -0.923567
vt 0.335390 -0.920382
vt 0.335390 -0.328025
vt 0.332205 -0.324841
vt 0.332205 -0.050955
vt 0.332205 -0.305732
vt 0.335390 -0.302548
vt 0.335390 -0.054140
vt 0.897978 0.000000
vt 0.890625 0.000000
vt 0.890625 -0.286765
vt 0.897978 -0.286765
vt 0.890625 -0.316176
vt 0.890625 -1.000000
vt 0.897978 -1.000000
vt 0.897978 -0.316176
vt 0.897978 -1.000000
vt 0.890625 -1.000000
vt 0.890625 -0.316176
vt 0.897978 -0.316176
vt 0.933594 -1.000000
vt 0.933594 0.000000
vt 0.945378 0.000000
vt 0.945378 -1.000000
vt 0.953125 0.000000
vt 0.953125 -0.762477
vt 0.968117 -0.762477
vt 0.968117 0.000000
vt 0.206027 -0.034085
vt 0.206027 -0.640043
vt 0.108325 -0.640043
vt 0.108325 -0.034085
vt 0.199219 -0.034085
vt 0.108325 -0.034085
vt 0.108325 -0.640043
vt 0.199219 -0.640043
vt 0.945378 -1.000000
vt 0.945378 0.000000
vt 0.933594 0.000000
vt 0.933594 -1.000000
vt 0.848129 -0.961068
vt 0.281250 -0.961068
vt 0.281250 -0.961783
vt 0.848129 -0.961783
vt 0.281250 -0.946575
vt 0.848129 -0.946575
vt 0.848129 -0.945860
vt 0.281250 -0.945860
vt 0.281250 -0.987261
vt 0.848129 -0.987261
vt 0.848129 -0.986087
vt 0.281250 -0.986087
vt 0.848129 -0.997678
vt 0.281250 -0.997678
vt 0.281250 -1.000000
vt 0.848129 -1.000000
vt 0.375000 -0.395570
vt 0.375000 -0.367187
vt 0.378719 -0.396941
vt 0.376372 -0.396941
vt 0.378719 -0.409106
vt 0.381431 -0.411818
vt 0.389877 -0.411818
vt 0.389877 -0.348591
vt 0.362897 -0.348591
vt 0.360958 -0.349427
vt 0.360123 -0.351365
vt 0.360123 -0.364414
vt 0.360958 -0.366352
vt 0.362897 -0.367187
vt 0.199219 -0.674128
vt 0.226692 -0.674128
vt 0.226692 0.000000
vt 0.199219 0.000000
vt 0.984199 0.000000
vt 0.984199 -0.762477
vt 0.970259 -0.762477
vt 0.970259 0.000000
vt 0.281250 -0.961783
vt 0.281250 -0.986087
vt 0.848129 -0.986087
vt 0.848129 -0.961783
vt 0.848129 -0.987261
vt 0.281250 -0.987261
vt 0.281250 -0.987261
vt 0.848129 -0.987261
vt 0.281250 -0.987261
vt 0.281250 -0.997678
vt 0.848129 -0.997678
vt 0.848129 -0.987261
vt 0.241654 0.000000
vt 0.241654 -0.570588
vt 0.234375 -0.570588
vt 0.234375 0.000000
vt 0.925269 -0.431105
vt 0.925269 0.000000
vt 0.906250 0.000000
vt 0.906250 -0.431105
vt 0.906250 -0.431105
vt 0.906250 0.000000
vt 0.925269 0.000000
vt 0.925269 -0.431105
vt 0.925269 -0.431105
vt 0.925269 0.000000
vt 0.906250 0.000000
vt 0.906250 -0.431105
vt 0.906250 -0.431105
vt 0.906250 0.000000
vt 0.925269 0.000000
vt 0.925269 -0.431105
vt 0.859375 -0.265152
vt 0.859375 0.000000
vt 0.882102 0.000000
vt 0.882102 -0.265152
vt 0.882102 -0.265152
vt 0.882102 0.000000
vt 0.859375 0.000000
vt 0.859375 -0.265152
vt 0.859375 -1.000000
vt 0.859375 -0.325758
vt 0.882102 -0.325758
vt 0.882102 -1.000000
vt 0.882102 -1.000000
vt 0.882102 -0.325758
vt 0.859375 -0.325758
vt 0.859375 -1.000000
vt 0.335390 -0.328025
vt 0.335390 -0.920382
vt 0.348129 -0.340764
vt 0.781250 -0.340764
vt 0.793989 -0.328025
vt 0.781250 -0.907643
vt 0.793989 -0.920382
vt 0.348129 -0.907643
vt 0.259983 -1.000000
vt 0.246094 -1.000000
vt 0.246094 0.000000
vt 0.259983 0.000000
vt 0.797174 -0.324841
vt 0.332205 -0.324841
vt 0.335390 -0.328025
vt 0.793989 -0.328025
vt 0.332205 -0.305732
vt 0.797174 -0.305732
vt 0.793989 -0.302548
vt 0.335390 -0.302548
vt 0.246094 0.000000
vt 0.246094 -1.000000
vt 0.259983 -1.000000
vt 0.259983 0.000000
vt 0.797174 -0.305732
vt 0.797174 -0.050955
vt 0.793989 -0.054140
vt 0.793989 -0.302548
vt 0.819467 -0.945860
vt 0.819467 -0.028662
vt 0.816282 -0.031847
vt 0.816282 -0.942675
vt 0.897978 -0.286765
vt 0.890625 -0.286765
vt 0.890625 0.000000
vt 0.897978 0.000000
vt 0.816282 -0.942675
vt 0.313097 -0.942675
vt 0.309912 -0.945860
vt 0.819467 -0.945860
vt 0.332205 -0.923567
vt 0.797174 -0.923567
vt 0.793989 -0.920382
vt 0.335390 -0.920382
vt 0.246094 0.000000
vt 0.246094 -1.000000
vt 0.259983 -1.000000
vt 0.259983 0.000000
vt 0.313097 -0.942675
vt 0.313097 -0.031847
vt 0.309912 -0.028662
vt 0.309912 -0.945860
vt 0.797174 -0.923567
vt 0.797174 -0.324841
vt 0.793989 -0.328025
vt 0.793989 -0.920382
vt 0.819467 -0.028662
vt 0.309912 -0.028662
vt 0.313097 -0.031847
vt 0.816282 -0.031847
vt 0.335390 -0.054140
vt 0.793989 -0.054140
vt 0.797174 -0.050955
vt 0.332205 -0.050955
vt 0.000000 -1.000000
vt 0.000000 0.000000
vt 0.089575 0.000000
vt 0.006242 -1.000000
vt 0.089575 -1.000000
vt 0.284435 -0.945860
vt 0.287619 -0.945860
vt 0.284435 -0.003185
vt 0.287619 -0.006369
vt 0.844944 -0.003185
vt 0.841760 -0.006369
vt 0.297174 -0.015924
vt 0.832205 -0.015924
vt 0.300358 -0.019108
vt 0.829021 -0.019108
vt 0.304491 -0.023241
vt 0.824888 -0.023241
vt 0.307174 -0.025924
vt 0.822205 -0.025924
vt 0.309146 -0.027896
vt 0.820233 -0.027896
vt 0.309912 -0.028662
vt 0.819467 -0.028662
vt 0.309912 -0.028662
vt 0.309146 -0.027896
vt 0.309912 -0.945860
vt 0.309146 -0.945860
vt 0.307174 -0.945860
vt 0.304491 -0.945860
vt 0.300358 -0.945860
vt 0.297174 -0.945860
vt 0.819467 -0.945860
vt 0.820233 -0.945860
vt 0.819467 -0.028662
vt 0.820233 -0.027896
vt 0.822205 -0.945860
vt 0.824888 -0.945860
vt 0.829021 -0.945860
vt 0.832205 -0.945860
vt 0.841760 -0.945860
vt 0.844944 -0.945860
vt 0.848129 -0.945860
vt 0.848129 0.000000
vt 0.281250 0.000000
vt 0.281250 -0.945860
vt 0.816282 -0.942675
vt 0.816282 -0.031847
vt 0.797174 -0.324841
vt 0.797174 -0.923567
vt 0.332205 -0.923567
vt 0.313097 -0.942675
vt 0.332205 -0.324841
vt 0.332205 -0.305732
vt 0.797174 -0.305732
vt 0.797174 -0.050955
vt 0.313097 -0.031847
vt 0.332205 -0.050955
vt 0.793989 -0.054140
vt 0.781250 -0.066879
vt 0.781250 -0.289809
vt 0.335390 -0.054140
vt 0.348129 -0.066879
vt 0.335390 -0.302548
vt 0.348129 -0.289809
vt 0.793989 -0.302548
vt 0.381431 -0.411818
vt 0.389877 -0.411818
vt 0.389877 -0.348591
vt 0.378719 -0.409106
vt 0.378719 -0.396941
vt 0.376372 -0.396941
vt 0.375000 -0.395570
vt 0.375000 -0.367187
vt 0.362897 -0.367187
vt 0.360958 -0.366352
vt 0.360123 -0.364414
vt 0.360123 -0.351365
vt 0.360958 -0.349427
vt 0.362897 -0.348591
vt 0.281250 -0.961068
vt 0.848129 -0.961068
vt 0.848129 -0.959408
vt 0.281250 -0.959408
vt 0.281250 -0.948235
vt 0.848129 -0.948235
vt 0.848129 -0.946575
vt 0.281250 -0.946575
vn 0.0000 -1.0000 0.0000
vn 0.0000 0.0000 -1.0000
vn 0.7071 -0.0000 -0.7071
vn 0.0000 0.0000 1.0000
vn 0.0000 1.0000 0.0000
vn 0.3957 -0.9184 -0.0000
vn 0.3957 0.9184 -0.0000
vn 0.7071 -0.7071 -0.0000
vn 1.0000 0.0000 -0.0000
vn 0.7071 0.7071 0.0000
vn 0.7071 0.0000 0.7071
vn 0.8944 -0.0000 -0.4472
vn 0.8944 -0.4472 -0.0000
vn 0.8944 0.4472 -0.0000
vn 0.9615 -0.2747 -0.0000
vn 0.2747 -0.9615 0.0000
vn 0.2747 -0.0000 -0.9615
vn 0.9615 -0.0000 -0.2747
vn 0.8944 -0.0000 0.4472
vn 0.2747 -0.0000 0.9615
vn 0.9615 -0.0000 0.2747
vn 0.9184 -0.3957 -0.0000
vn 0.9184 0.3957 0.0000
s off
f 2/1/1 3/2/1 4/3/1
f 1/4/1 2/1/1 4/3/1
f 154/5/2 155/6/2 153/7/2
f 152/8/2 154/5/2 153/7/2
f 151/9/2 152/8/2 153/7/2
f 282/10/3 185/11/3 186/12/3
f 184/13/3 282/10/3 186/12/3
f 281/14/3 183/15/3 182/16/3
f 181/17/3 281/14/3 182/16/3
f 179/18/2 178/19/2 180/20/2
f 177/21/2 179/18/2 180/20/2
f 175/22/2 174/23/2 176/24/2
f 173/25/2 175/22/2 176/24/2
f 169/26/4 168/27/4 170/28/4
f 167/29/4 169/26/4 170/28/4
f 161/30/4 160/31/4 159/32/4
f 158/33/4 161/30/4 159/32/4
f 148/34/5 149/35/5 147/36/5
f 146/37/5 148/34/5 147/36/5
f 144/38/1 145/39/1 143/40/1
f 142/41/1 144/38/1 143/40/1
f 139/42/5 140/43/5 141/44/5
f 138/45/5 139/42/5 141/44/5
f 131/46/2 130/47/2 129/48/2
f 128/49/2 131/46/2 129/48/2
f 246/50/6 245/51/6 244/52/6
f 243/53/6 246/50/6 244/52/6
f 240/54/7 242/55/7 241/56/7
f 239/57/7 240/54/7 241/56/7
f 235/58/8 236/59/8 122/60/8
f 121/61/8 235/58/8 122/60/8
f 233/62/8 234/63/8 120/64/8
f 119/65/8 233/62/8 120/64/8
f 107/66/4 110/67/4 108/68/4
f 226/69/4 107/66/4 108/68/4
f 225/70/4 108/68/4 109/71/4
f 110/67/4 109/71/4 108/68/4
f 106/72/4 109/71/4 110/67/4
f 105/73/4 106/72/4 110/67/4
f 224/74/4 105/73/4 110/67/4
f 104/75/4 224/74/4 110/67/4
f 223/76/4 104/75/4 110/67/4
f 222/77/4 223/76/4 110/67/4
f 103/78/4 222/77/4 110/67/4
f 221/79/4 103/78/4 110/67/4
f 102/80/5 219/81/5 220/82/5
f 101/83/5 102/80/5 220/82/5
f 217/84/1 218/85/1 100/86/1
f 99/87/1 217/84/1 100/86/1
f 97/88/9 96/89/9 98/90/9
f 95/91/9 97/88/9 98/90/9
f 216/92/1 215/93/1 94/94/1
f 93/95/1 216/92/1 94/94/1
f 92/96/9 214/97/9 213/98/9
f 91/99/9 92/96/9 213/98/9
f 90/100/1 88/101/1 89/102/1
f 87/103/1 90/100/1 89/102/1
f 84/104/5 85/105/5 86/106/5
f 83/107/5 84/104/5 86/106/5
f 77/108/1 76/109/1 78/110/1
f 75/111/1 77/108/1 78/110/1
f 70/112/5 68/113/5 69/114/5
f 67/115/5 70/112/5 69/114/5
f 61/116/1 62/117/1 60/118/1
f 59/119/1 61/116/1 60/118/1
f 54/120/4 53/121/4 52/122/4
f 51/123/4 54/120/4 52/122/4
f 49/124/2 50/125/2 48/126/2
f 47/127/2 49/124/2 48/126/2
f 46/128/4 44/129/4 45/130/4
f 43/131/4 46/128/4 45/130/4
f 41/132/2 42/133/2 40/134/2
f 39/135/2 41/132/2 40/134/2
f 73/136/9 79/137/9 74/138/9
f 73/136/9 74/138/9 71/139/9
f 72/140/9 73/136/9 71/139/9
f 72/140/9 71/139/9 82/141/9
f 80/142/9 72/140/9 82/141/9
f 80/142/9 82/141/9 81/143/9
f 79/137/9 80/142/9 81/143/9
f 79/137/9 81/143/9 74/138/9
f 36/144/1 37/145/1 38/146/1
f 35/147/1 36/144/1 38/146/1
f 32/148/8 33/149/8 34/150/8
f 31/151/8 32/148/8 34/150/8
f 29/152/10 28/153/10 30/154/10
f 27/155/10 29/152/10 30/154/10
f 24/156/5 25/157/5 26/158/5
f 23/159/5 24/156/5 26/158/5
f 21/160/11 212/161/11 22/162/11
f 20/163/11 21/160/11 22/162/11
f 210/164/3 211/165/3 209/166/3
f 208/167/3 210/164/3 209/166/3
f 18/168/4 17/169/4 19/170/4
f 16/171/4 18/168/4 19/170/4
f 207/172/8 206/173/8 15/174/8
f 14/175/8 207/172/8 15/174/8
f 203/176/10 205/177/10 204/178/10
f 202/179/10 203/176/10 204/178/10
f 12/180/5 11/181/5 13/182/5
f 10/183/5 12/180/5 13/182/5
f 199/184/11 198/185/11 200/186/11
f 197/187/11 199/184/11 200/186/11
f 195/188/11 9/189/11 8/190/11
f 7/191/11 195/188/11 8/190/11
f 6/192/10 5/193/10 194/194/10
f 193/195/10 6/192/10 194/194/10
f 190/196/8 192/197/8 191/198/8
f 189/199/8 190/196/8 191/198/8
f 166/200/4 165/201/4 164/202/4
f 163/203/4 166/200/4 164/202/4
f 162/204/4 163/203/4 164/202/4
f 273/205/12 276/206/12 274/207/12
f 276/206/12 277/208/12 274/207/12
f 268/209/13 274/207/13 277/208/13
f 267/210/13 268/209/13 277/208/13
f 267/210/9 277/208/9 275/211/9
f 266/212/9 267/210/9 275/211/9
f 266/212/14 275/211/14 272/213/14
f 265/214/14 266/212/14 272/213/14
f 265/214/9 272/213/9 271/215/9
f 264/216/9 265/214/9 271/215/9
f 271/215/15 261/217/15 264/216/15
f 261/217/15 262/218/15 264/216/15
f 262/218/8 261/217/8 260/219/8
f 263/220/8 262/218/8 260/219/8
f 263/220/16 260/219/16 254/221/16
f 253/222/16 263/220/16 254/221/16
f 132/223/17 256/224/17 133/225/17
f 256/224/17 255/226/17 133/225/17
f 256/224/3 261/217/3 255/226/3
f 261/217/3 137/227/3 255/226/3
f 137/227/18 261/217/18 271/215/18
f 270/228/18 137/227/18 271/215/18
f 270/228/9 271/215/9 272/213/9
f 269/229/9 270/228/9 272/213/9
f 269/229/19 272/213/19 275/211/19
f 278/230/19 269/229/19 275/211/19
f 278/230/9 275/211/9 277/208/9
f 276/206/9 278/230/9 277/208/9
f 134/231/20 257/232/20 135/233/20
f 257/232/20 258/234/20 135/233/20
f 257/232/11 136/235/11 258/234/11
f 136/235/11 262/218/11 258/234/11
f 262/218/21 136/235/21 259/236/21
f 264/216/21 262/218/21 259/236/21
f 259/236/9 250/237/9 264/216/9
f 250/237/9 265/214/9 264/216/9
f 250/237/12 252/238/12 265/214/12
f 252/238/12 266/212/12 265/214/12
f 252/238/9 251/239/9 266/212/9
f 251/239/9 267/210/9 266/212/9
f 251/239/19 249/240/19 267/210/19
f 249/240/19 268/209/19 267/210/19
f 249/240/9 127/241/9 268/209/9
f 127/241/9 150/242/9 268/209/9
f 268/209/9 150/242/9 274/207/9
f 150/242/9 157/243/9 274/207/9
f 273/205/9 274/207/9 157/243/9
f 156/244/9 273/205/9 157/243/9
f 280/245/9 279/246/9 172/247/9
f 201/248/9 280/245/9 172/247/9
f 280/245/9 201/248/9 283/249/9
f 284/250/9 280/245/9 283/249/9
f 188/251/9 284/250/9 283/249/9
f 284/250/9 188/251/9 187/252/9
f 188/251/9 172/247/9 187/252/9
f 171/253/9 187/252/9 172/247/9
f 279/246/9 171/253/9 172/247/9
f 171/253/9 279/246/9 196/254/9
f 279/246/9 285/255/9 196/254/9
f 285/255/9 286/256/9 196/254/9
f 286/256/9 285/255/9 187/252/9
f 285/255/9 284/250/9 187/252/9
f 55/257/9 58/258/9 66/259/9
f 55/257/9 56/260/9 58/258/9
f 56/260/9 57/261/9 58/258/9
f 56/260/9 64/262/9 57/261/9
f 64/262/9 63/263/9 57/261/9
f 64/262/9 65/264/9 63/263/9
f 65/264/9 66/259/9 63/263/9
f 65/264/9 55/257/9 66/259/9
f 117/265/2 116/266/2 118/267/2
f 232/268/2 117/265/2 118/267/2
f 115/269/2 232/268/2 118/267/2
f 231/270/2 115/269/2 118/267/2
f 114/271/2 231/270/2 118/267/2
f 113/272/2 114/271/2 118/267/2
f 230/273/2 113/272/2 118/267/2
f 112/274/2 230/273/2 118/267/2
f 229/275/2 112/274/2 118/267/2
f 228/276/2 229/275/2 118/267/2
f 111/277/2 228/276/2 118/267/2
f 227/278/2 111/277/2 118/267/2
f 124/279/22 123/280/22 238/281/22
f 237/282/22 124/279/22 238/281/22
f 248/283/9 237/282/9 238/281/9
f 247/284/9 248/283/9 238/281/9
f 247/284/23 126/285/23 248/283/23
f 126/285/23 125/286/23 248/283/23
